<svg width="446" height="330" viewBox="0 0 446 330" fill="none" xmlns="http://www.w3.org/2000/svg">
<rect width="446" height="330" fill="white"/>
<path d="M112.311 146.35C119.621 174.37 175.905 242.652 156.533 221.128C149.247 213.031 142.223 204.611 135.2 196.183C119.09 176.852 103.006 156.809 89.0331 135.85C86.4768 132.015 60.8958 98.9417 77.3109 96.3498C85.2425 95.0975 92.5536 96.5189 100.255 98.9609C122.124 105.895 144.199 112.434 164.7 122.961C171.165 126.281 182.477 130.868 186.255 137.794C194.662 153.207 145.487 149.762 138.311 153.35" stroke="black" stroke-width="3" stroke-linecap="round"/>
<path d="M158.311 197.35C158.311 200.106 159.678 203.301 160.811 205.794C161.317 206.908 162.234 208.113 162.311 209.35C162.382 210.494 162.22 208.822 162.811 208.35C166.109 205.711 165.311 191.15 165.311 186.905C165.311 179.127 167.157 193.808 168.311 195.683C168.835 196.535 171.511 202.305 172.311 201.905C176.079 200.021 175.13 183.426 175.311 181.35" stroke="black" stroke-width="3" stroke-linecap="round"/>
<path d="M183.311 187.35C181.161 187.35 179.166 185.531 177.311 187.85C175.917 189.593 173.791 192.259 174.366 194.85C175.635 200.559 185.311 198.956 185.311 192.85C185.311 190.527 183.541 177.566 178.533 181.572C177.356 182.513 174.822 188.039 177.311 188.35C179.984 188.684 181.63 188.35 184.311 188.35" stroke="black" stroke-width="3" stroke-linecap="round"/>
<path d="M188.311 184.35C190.019 184.136 188.311 179.341 188.311 181.85C188.311 184.176 188.622 184.942 190.089 186.572C192.455 189.201 197.062 188.833 197.311 184.35C197.497 181.005 196.311 171 196.311 174.35C196.311 176.5 200.669 181.35 202.811 181.35C206.583 181.35 206.553 180.956 209.811 178.35C212.012 176.589 213.264 171.253 214.089 168.572C215.827 162.922 212.311 162.956 212.311 168.35C212.311 171.558 210.71 168.702 210.366 169.905C209.949 171.367 210.037 174.367 210.366 175.85C211.787 182.245 218.33 178.014 219.255 173.85C220.03 170.362 221.475 166.281 218.089 163.572C213.18 159.645 211.858 178.758 220.811 171.794C223.264 169.886 224.311 164.94 224.311 161.961C224.311 160.73 224.319 164.611 225.089 165.572C225.223 165.74 227.149 170.096 227.311 167.35C227.532 163.595 228.311 159.574 228.311 155.35C228.311 144.94 225.311 134.79 225.311 124.405C225.311 118.082 224.311 111.743 224.311 105.35C224.311 101.204 225.273 105.653 225.533 107.016C226.326 111.179 226.759 115.412 227.255 119.628C228.017 126.101 227.579 133.538 229.366 139.794C230.986 145.463 237.428 140.618 239.866 139.128C243.262 137.053 247.287 131.492 249.755 128.35C253.391 123.722 258.223 119.377 262.422 115.239C271.01 106.775 281.382 99.9874 291.422 93.2943C296.995 89.5787 300.801 91.1254 298.311 97.3498C292.558 111.733 278.506 125.518 268.2 136.239C204.411 202.591 127.022 253.046 47.8108 298.905C45.4845 300.252 38.1117 306.909 39.0886 306.128C41.4351 304.25 44.2072 302.935 46.8108 301.35C57.3457 294.937 66.418 286.201 77.0886 280.016C95.9402 269.091 114.399 257.151 132.866 245.572C210.081 197.16 295.149 162.607 376.755 122.85C381.341 120.616 395.685 115.503 391.311 118.128C388.194 119.998 384.777 123.291 382.811 126.35C380.104 130.56 374.742 134.866 371.2 138.461C367.081 142.641 363.452 147.208 359.311 151.35" stroke="black" stroke-width="3" stroke-linecap="round"/>
</svg>
